<?xml version="1.0" encoding="UTF-8" standalone="no"?>
<!DOCTYPE svg PUBLIC "-//W3C//DTD SVG 1.1//EN"
 "http://www.w3.org/Graphics/SVG/1.1/DTD/svg11.dtd">
<!-- Generated by graphviz version 7.1.0 (20230121.1956)
 -->
<!-- Pages: 1 -->
<svg width="1353pt" height="237pt"
 viewBox="0.00 0.00 1352.99 237.00" xmlns="http://www.w3.org/2000/svg" xmlns:xlink="http://www.w3.org/1999/xlink">
<g id="graph0" class="graph" transform="scale(1 1) rotate(0) translate(4 233)">
<polygon fill="white" stroke="none" points="-4,4 -4,-233 1348.99,-233 1348.99,4 -4,4"/>
<!-- 2234911759936 -->
<g id="node1" class="node">
<title>2234911759936</title>
<polygon fill="none" stroke="black" points="290.5,-192.5 290.5,-228.5 458.5,-228.5 458.5,-192.5 290.5,-192.5"/>
<text text-anchor="middle" x="331" y="-206.8" font-family="Times New Roman,serif" font-size="14.00">data 0.0665</text>
<polyline fill="none" stroke="black" points="371.5,-192.5 371.5,-228.5"/>
<text text-anchor="middle" x="415" y="-206.8" font-family="Times New Roman,serif" font-size="14.00">grad &#45;2.0000</text>
</g>
<!-- 2234911792560* -->
<g id="node13" class="node">
<title>2234911792560*</title>
<ellipse fill="none" stroke="black" cx="522" cy="-155.5" rx="27" ry="18"/>
<text text-anchor="middle" x="522" y="-151.8" font-family="Times New Roman,serif" font-size="14.00">*</text>
</g>
<!-- 2234911759936&#45;&gt;2234911792560* -->
<g id="edge7" class="edge">
<title>2234911759936&#45;&gt;2234911792560*</title>
<path fill="none" stroke="black" d="M433.74,-192.59C442.27,-189.7 450.9,-186.63 459,-183.5 468.93,-179.67 479.55,-175.06 489.14,-170.71"/>
<polygon fill="black" stroke="black" points="490.46,-173.95 498.07,-166.58 487.52,-167.6 490.46,-173.95"/>
</g>
<!-- 2234911796832 -->
<g id="node2" class="node">
<title>2234911796832</title>
<polygon fill="none" stroke="black" points="587.5,-82.5 587.5,-118.5 751.5,-118.5 751.5,-82.5 587.5,-82.5"/>
<text text-anchor="middle" x="628" y="-96.8" font-family="Times New Roman,serif" font-size="14.00">data 0.2355</text>
<polyline fill="none" stroke="black" points="668.5,-82.5 668.5,-118.5"/>
<text text-anchor="middle" x="710" y="-96.8" font-family="Times New Roman,serif" font-size="14.00">grad 1.0000</text>
</g>
<!-- 2234911792368+ -->
<g id="node8" class="node">
<title>2234911792368+</title>
<ellipse fill="none" stroke="black" cx="817" cy="-127.5" rx="27" ry="18"/>
<text text-anchor="middle" x="817" y="-123.8" font-family="Times New Roman,serif" font-size="14.00">+</text>
</g>
<!-- 2234911796832&#45;&gt;2234911792368+ -->
<g id="edge8" class="edge">
<title>2234911796832&#45;&gt;2234911792368+</title>
<path fill="none" stroke="black" d="M751.33,-115.5C761.14,-117.32 770.74,-119.1 779.43,-120.71"/>
<polygon fill="black" stroke="black" points="778.67,-124.13 789.14,-122.52 779.94,-117.25 778.67,-124.13"/>
</g>
<!-- 2234911796832+ -->
<g id="node3" class="node">
<title>2234911796832+</title>
<ellipse fill="none" stroke="black" cx="522" cy="-100.5" rx="27" ry="18"/>
<text text-anchor="middle" x="522" y="-96.8" font-family="Times New Roman,serif" font-size="14.00">+</text>
</g>
<!-- 2234911796832+&#45;&gt;2234911796832 -->
<g id="edge1" class="edge">
<title>2234911796832+&#45;&gt;2234911796832</title>
<path fill="none" stroke="black" d="M549.35,-100.5C557.24,-100.5 566.37,-100.5 576.01,-100.5"/>
<polygon fill="black" stroke="black" points="575.99,-104 585.99,-100.5 575.99,-97 575.99,-104"/>
</g>
<!-- 2234911755952 -->
<g id="node4" class="node">
<title>2234911755952</title>
<polygon fill="none" stroke="black" points="290,-137.5 290,-173.5 459,-173.5 459,-137.5 290,-137.5"/>
<text text-anchor="middle" x="333" y="-151.8" font-family="Times New Roman,serif" font-size="14.00">data &#45;2.0000</text>
<polyline fill="none" stroke="black" points="376,-137.5 376,-173.5"/>
<text text-anchor="middle" x="417.5" y="-151.8" font-family="Times New Roman,serif" font-size="14.00">grad 0.0665</text>
</g>
<!-- 2234911755952&#45;&gt;2234911792560* -->
<g id="edge6" class="edge">
<title>2234911755952&#45;&gt;2234911792560*</title>
<path fill="none" stroke="black" d="M458.87,-155.5C467.37,-155.5 475.68,-155.5 483.3,-155.5"/>
<polygon fill="black" stroke="black" points="483.15,-159 493.15,-155.5 483.15,-152 483.15,-159"/>
</g>
<!-- 2234911792320 -->
<g id="node5" class="node">
<title>2234911792320</title>
<polygon fill="none" stroke="black" points="292.5,-82.5 292.5,-118.5 456.5,-118.5 456.5,-82.5 292.5,-82.5"/>
<text text-anchor="middle" x="333" y="-96.8" font-family="Times New Roman,serif" font-size="14.00">data 0.0000</text>
<polyline fill="none" stroke="black" points="373.5,-82.5 373.5,-118.5"/>
<text text-anchor="middle" x="415" y="-96.8" font-family="Times New Roman,serif" font-size="14.00">grad 1.0000</text>
</g>
<!-- 2234911792320&#45;&gt;2234911796832+ -->
<g id="edge11" class="edge">
<title>2234911792320&#45;&gt;2234911796832+</title>
<path fill="none" stroke="black" d="M456.33,-100.5C465.76,-100.5 475,-100.5 483.42,-100.5"/>
<polygon fill="black" stroke="black" points="483.18,-104 493.18,-100.5 483.18,-97 483.18,-104"/>
</g>
<!-- 2234911758016 -->
<g id="node6" class="node">
<title>2234911758016</title>
<polygon fill="none" stroke="black" points="0,-55.5 0,-91.5 164,-91.5 164,-55.5 0,-55.5"/>
<text text-anchor="middle" x="40.5" y="-69.8" font-family="Times New Roman,serif" font-size="14.00">data 0.2355</text>
<polyline fill="none" stroke="black" points="81,-55.5 81,-91.5"/>
<text text-anchor="middle" x="122.5" y="-69.8" font-family="Times New Roman,serif" font-size="14.00">grad 1.0000</text>
</g>
<!-- 2234911793520* -->
<g id="node11" class="node">
<title>2234911793520*</title>
<ellipse fill="none" stroke="black" cx="227" cy="-45.5" rx="27" ry="18"/>
<text text-anchor="middle" x="227" y="-41.8" font-family="Times New Roman,serif" font-size="14.00">*</text>
</g>
<!-- 2234911758016&#45;&gt;2234911793520* -->
<g id="edge13" class="edge">
<title>2234911758016&#45;&gt;2234911793520*</title>
<path fill="none" stroke="black" d="M163.69,-57.7C172.72,-55.93 181.54,-54.2 189.58,-52.63"/>
<polygon fill="black" stroke="black" points="190.1,-56.1 199.24,-50.74 188.76,-49.23 190.1,-56.1"/>
</g>
<!-- 2234911792368 -->
<g id="node7" class="node">
<title>2234911792368</title>
<polygon fill="none" stroke="black" points="880,-109.5 880,-145.5 1044,-145.5 1044,-109.5 880,-109.5"/>
<text text-anchor="middle" x="920.5" y="-123.8" font-family="Times New Roman,serif" font-size="14.00">data 0.1024</text>
<polyline fill="none" stroke="black" points="961,-109.5 961,-145.5"/>
<text text-anchor="middle" x="1002.5" y="-123.8" font-family="Times New Roman,serif" font-size="14.00">grad 1.0000</text>
</g>
<!-- 2234911793088ReLU -->
<g id="node15" class="node">
<title>2234911793088ReLU</title>
<ellipse fill="none" stroke="black" cx="1112.5" cy="-127.5" rx="32.49" ry="18"/>
<text text-anchor="middle" x="1112.5" y="-123.8" font-family="Times New Roman,serif" font-size="14.00">ReLU</text>
</g>
<!-- 2234911792368&#45;&gt;2234911793088ReLU -->
<g id="edge9" class="edge">
<title>2234911792368&#45;&gt;2234911793088ReLU</title>
<path fill="none" stroke="black" d="M1043.77,-127.5C1052.26,-127.5 1060.64,-127.5 1068.45,-127.5"/>
<polygon fill="black" stroke="black" points="1068.31,-131 1078.31,-127.5 1068.31,-124 1068.31,-131"/>
</g>
<!-- 2234911792368+&#45;&gt;2234911792368 -->
<g id="edge2" class="edge">
<title>2234911792368+&#45;&gt;2234911792368</title>
<path fill="none" stroke="black" d="M844.23,-127.5C851.54,-127.5 859.93,-127.5 868.78,-127.5"/>
<polygon fill="black" stroke="black" points="868.68,-131 878.68,-127.5 868.68,-124 868.68,-131"/>
</g>
<!-- 2234911758688 -->
<g id="node9" class="node">
<title>2234911758688</title>
<polygon fill="none" stroke="black" points="0,-0.5 0,-36.5 164,-36.5 164,-0.5 0,-0.5"/>
<text text-anchor="middle" x="40.5" y="-14.8" font-family="Times New Roman,serif" font-size="14.00">data 1.0000</text>
<polyline fill="none" stroke="black" points="81,-0.5 81,-36.5"/>
<text text-anchor="middle" x="122.5" y="-14.8" font-family="Times New Roman,serif" font-size="14.00">grad 0.2355</text>
</g>
<!-- 2234911758688&#45;&gt;2234911793520* -->
<g id="edge12" class="edge">
<title>2234911758688&#45;&gt;2234911793520*</title>
<path fill="none" stroke="black" d="M163.69,-33.74C172.72,-35.44 181.54,-37.11 189.58,-38.62"/>
<polygon fill="black" stroke="black" points="188.76,-42.03 199.24,-40.45 190.06,-35.15 188.76,-42.03"/>
</g>
<!-- 2234911793520 -->
<g id="node10" class="node">
<title>2234911793520</title>
<polygon fill="none" stroke="black" points="292.5,-27.5 292.5,-63.5 456.5,-63.5 456.5,-27.5 292.5,-27.5"/>
<text text-anchor="middle" x="333" y="-41.8" font-family="Times New Roman,serif" font-size="14.00">data 0.2355</text>
<polyline fill="none" stroke="black" points="373.5,-27.5 373.5,-63.5"/>
<text text-anchor="middle" x="415" y="-41.8" font-family="Times New Roman,serif" font-size="14.00">grad 1.0000</text>
</g>
<!-- 2234911793520&#45;&gt;2234911796832+ -->
<g id="edge14" class="edge">
<title>2234911793520&#45;&gt;2234911796832+</title>
<path fill="none" stroke="black" d="M433.74,-63.41C442.27,-66.3 450.9,-69.37 459,-72.5 468.93,-76.33 479.55,-80.94 489.14,-85.29"/>
<polygon fill="black" stroke="black" points="487.52,-88.4 498.07,-89.42 490.46,-82.05 487.52,-88.4"/>
</g>
<!-- 2234911793520*&#45;&gt;2234911793520 -->
<g id="edge3" class="edge">
<title>2234911793520*&#45;&gt;2234911793520</title>
<path fill="none" stroke="black" d="M254.35,-45.5C262.24,-45.5 271.37,-45.5 281.01,-45.5"/>
<polygon fill="black" stroke="black" points="280.99,-49 290.99,-45.5 280.99,-42 280.99,-49"/>
</g>
<!-- 2234911792560 -->
<g id="node12" class="node">
<title>2234911792560</title>
<polygon fill="none" stroke="black" points="585,-137.5 585,-173.5 754,-173.5 754,-137.5 585,-137.5"/>
<text text-anchor="middle" x="628" y="-151.8" font-family="Times New Roman,serif" font-size="14.00">data &#45;0.1331</text>
<polyline fill="none" stroke="black" points="671,-137.5 671,-173.5"/>
<text text-anchor="middle" x="712.5" y="-151.8" font-family="Times New Roman,serif" font-size="14.00">grad 1.0000</text>
</g>
<!-- 2234911792560&#45;&gt;2234911792368+ -->
<g id="edge10" class="edge">
<title>2234911792560&#45;&gt;2234911792368+</title>
<path fill="none" stroke="black" d="M753.87,-139.46C762.83,-137.73 771.57,-136.05 779.53,-134.52"/>
<polygon fill="black" stroke="black" points="779.93,-138.01 789.09,-132.68 778.6,-131.13 779.93,-138.01"/>
</g>
<!-- 2234911792560*&#45;&gt;2234911792560 -->
<g id="edge4" class="edge">
<title>2234911792560*&#45;&gt;2234911792560</title>
<path fill="none" stroke="black" d="M549.35,-155.5C556.6,-155.5 564.92,-155.5 573.7,-155.5"/>
<polygon fill="black" stroke="black" points="573.53,-159 583.53,-155.5 573.53,-152 573.53,-159"/>
</g>
<!-- 2234911793088 -->
<g id="node14" class="node">
<title>2234911793088</title>
<polygon fill="none" stroke="black" points="1180.99,-109.5 1180.99,-145.5 1344.99,-145.5 1344.99,-109.5 1180.99,-109.5"/>
<text text-anchor="middle" x="1221.49" y="-123.8" font-family="Times New Roman,serif" font-size="14.00">data 0.1024</text>
<polyline fill="none" stroke="black" points="1261.99,-109.5 1261.99,-145.5"/>
<text text-anchor="middle" x="1303.49" y="-123.8" font-family="Times New Roman,serif" font-size="14.00">grad 1.0000</text>
</g>
<!-- 2234911793088ReLU&#45;&gt;2234911793088 -->
<g id="edge5" class="edge">
<title>2234911793088ReLU&#45;&gt;2234911793088</title>
<path fill="none" stroke="black" d="M1145.35,-127.5C1152.76,-127.5 1161.01,-127.5 1169.61,-127.5"/>
<polygon fill="black" stroke="black" points="1169.56,-131 1179.56,-127.5 1169.56,-124 1169.56,-131"/>
</g>
</g>
</svg>
